<svg width="270" height="180" viewBox="0 0 270 180" fill="none" xmlns="http://www.w3.org/2000/svg">
<rect width="270" height="180" rx="8" fill="#E6E6E6"/>
<path d="M137.964 89.4275C136.313 89.4275 135.123 89.9747 133.916 90.5323V103.147C135.072 103.259 135.735 103.259 136.831 103.259C140.795 103.259 141.339 101.424 141.339 98.863V92.838C141.339 90.9466 140.717 89.4275 137.964 89.4275ZM111.64 88.7391C108.89 88.7391 108.262 90.2647 108.262 92.1543V93.2159H115.014V92.1543C115.014 90.2647 114.386 88.7391 111.64 88.7391ZM60.6442 101.869C60.6442 103.364 61.3421 104.141 62.8825 104.141C64.5348 104.141 65.5132 103.596 66.7194 103.037V100.044H63.1065C61.3958 100.044 60.6442 100.366 60.6442 101.869ZM163.572 89.4275C160.817 89.4275 159.862 90.9466 159.862 92.838V99.7404C159.862 101.637 160.817 103.16 163.572 103.16C166.319 103.16 167.281 101.637 167.281 99.7404V92.838C167.28 90.9466 166.318 89.4275 163.572 89.4275ZM47.144 109.609H39.0462V89.8026H35V82.9779H39.0471V78.8789C39.0471 73.3104 41.3307 70 47.8216 70H53.2257V76.8266H49.8479C47.3208 76.8266 47.1542 77.7807 47.1542 79.5608L47.144 82.9769H53.2628L52.5472 89.8017H47.144V109.609ZM74.8191 109.66H68.07L67.7784 107.936C64.6968 109.66 61.9466 109.94 60.1323 109.94C55.1826 109.94 52.5481 106.599 52.5481 101.978C52.5481 96.5264 55.6223 94.5807 61.1218 94.5807H66.7194V93.4021C66.7194 90.6192 66.4037 89.8026 62.1688 89.8026H55.2447L55.9213 82.9779H63.4897C72.7817 82.9779 74.8191 85.9441 74.8191 93.4573V109.66ZM97.7695 90.3031C93.5697 89.5753 92.3636 89.4154 90.3428 89.4154C86.7132 89.4154 85.6163 90.2245 85.6163 93.3394V99.2316C85.6163 102.346 86.7132 103.159 90.3428 103.159C92.3636 103.159 93.5697 102.997 97.7695 102.266V108.923C94.0909 109.757 91.6943 109.976 89.6689 109.976C80.9749 109.976 77.5193 105.356 77.5193 98.6815V93.9007C77.5193 87.2209 80.9749 82.5925 89.6689 82.5925C91.6943 82.5925 94.0909 82.8123 97.7695 83.6495V90.3031ZM123.111 98.6815H108.261V99.2316C108.261 102.346 109.359 103.159 112.988 103.159C116.25 103.159 118.241 102.997 122.433 102.266V108.923C118.39 109.757 116.283 109.976 112.317 109.976C103.622 109.976 100.164 105.356 100.164 98.6815V93.215C100.164 87.3752 102.729 82.5925 111.639 82.5925C120.549 82.5925 123.111 87.3201 123.111 93.215V98.6815ZM149.435 98.8078C149.435 105.258 147.61 109.964 136.557 109.964C132.566 109.964 130.225 109.609 125.82 108.924V72.0504L133.915 70.6857V83.584C135.664 82.9274 137.928 82.5934 139.989 82.5934C148.085 82.5934 149.434 86.2612 149.434 92.1552V98.8078H149.435ZM175.384 98.9481C175.384 104.513 173.111 109.91 163.598 109.91C154.082 109.91 151.765 104.513 151.765 98.9481V93.5751C151.765 88.0076 154.082 82.6093 163.598 82.6093C173.111 82.6093 175.384 88.0076 175.384 93.5751V98.9481ZM201.316 98.9481C201.316 104.513 199.04 109.91 189.53 109.91C180.013 109.91 177.697 104.513 177.697 98.9481V93.5751C177.697 88.0076 180.013 82.6093 189.53 82.6093C199.04 82.6093 201.316 88.0076 201.316 93.5751V98.9481ZM227.929 109.609H219.154L211.733 97.0904V109.609H203.635V72.0495L211.733 70.6847V94.8641L219.154 82.9779H227.929L219.827 95.9492L227.929 109.609ZM189.502 89.4275C186.752 89.4275 185.797 90.9466 185.797 92.838V99.7404C185.797 101.637 186.752 103.16 189.502 103.16C192.248 103.16 193.22 101.637 193.22 99.7404V92.838C193.22 90.9466 192.248 89.4275 189.502 89.4275ZM232.551 104.938C233.914 104.938 235 106.061 235 107.464C235 108.889 233.913 110 232.54 110C231.174 110 230.066 108.889 230.066 107.464C230.066 106.061 231.174 104.938 232.54 104.938H232.551ZM232.54 105.33C231.442 105.33 230.543 106.285 230.543 107.464C230.543 108.664 231.443 109.607 232.551 109.607C233.66 109.618 234.545 108.664 234.545 107.475C234.545 106.286 233.66 105.33 232.551 105.33H232.54ZM232.075 108.935H231.63V106.115C231.864 106.083 232.086 106.05 232.419 106.05C232.841 106.05 233.117 106.14 233.287 106.262C233.45 106.387 233.538 106.576 233.538 106.845C233.538 107.217 233.296 107.441 232.997 107.531V107.553C233.24 107.599 233.406 107.821 233.462 108.236C233.527 108.675 233.595 108.842 233.638 108.934H233.173C233.107 108.842 233.039 108.585 232.984 108.213C232.919 107.855 232.739 107.72 232.384 107.72H232.076V108.935H232.075ZM232.075 107.374H232.397C232.762 107.374 233.072 107.239 233.072 106.89C233.072 106.643 232.896 106.397 232.397 106.397C232.252 106.397 232.151 106.408 232.075 106.418V107.374Z" fill="black"/>
</svg>
