<svg width="270" height="180" viewBox="0 0 270 180" fill="none" xmlns="http://www.w3.org/2000/svg">
<rect width="270" height="180" rx="8" fill="#E6E6E6"/>
<path d="M45.2957 67.6953C41.2257 69.4298 36.6978 74.2762 35.2733 80.3979C33.4927 88.1011 40.9713 91.366 41.5818 90.2947C42.2941 89.0193 40.2591 88.6112 39.8012 84.6321C39.2416 79.4796 41.6327 73.664 44.6852 71.1643C45.2448 70.7051 45.2448 71.3683 45.2448 72.5417C45.2448 74.7353 45.1431 94.1718 45.1431 98.253C45.1431 103.763 44.9396 105.497 44.5326 107.181C44.1256 108.915 43.4642 110.088 43.973 110.547C44.5326 111.058 46.9237 109.833 48.2973 107.895C49.9762 105.548 50.5358 102.793 50.6376 99.7324C50.7393 96.0593 50.7393 90.2437 50.7393 86.9788C50.7393 83.9179 50.7902 75.0414 50.6885 69.6848C50.6376 68.3585 47.0255 66.9811 45.2957 67.6953ZM190.646 93.4576C190.493 96.3144 189.882 98.5591 189.119 100.141C187.593 103.201 184.439 104.12 183.116 99.7324C182.404 97.3347 182.353 93.3556 182.862 89.9886C183.37 86.5707 184.897 84.0199 187.339 84.275C189.781 84.5301 190.9 87.642 190.646 93.4576ZM149.691 111.211C149.64 115.955 148.928 120.138 147.3 121.312C145.011 123.046 142.009 121.72 142.62 118.251C143.179 115.19 145.825 112.027 149.691 108.201C149.691 108.252 149.691 109.119 149.691 111.211ZM149.03 93.4066C148.877 96.0083 148.216 98.6101 147.504 100.09C145.977 103.15 142.823 104.12 141.5 99.6814C140.585 96.6715 140.839 92.7944 141.246 90.3457C141.806 87.1828 143.23 84.224 145.723 84.224C148.216 84.275 149.386 86.9788 149.03 93.4066ZM125.322 93.4066C125.169 96.1614 124.661 98.457 123.796 100.141C122.219 103.15 119.166 104.12 117.793 99.7324C116.826 96.5695 117.131 92.2843 117.538 89.9376C118.149 86.4686 119.675 84.0199 122.015 84.275C124.457 84.5301 125.627 87.642 125.322 93.4066ZM234.093 96.6205C233.482 96.6205 233.228 97.2327 233.024 98.253C232.261 101.824 231.447 102.64 230.379 102.64C229.209 102.64 228.14 100.855 227.886 97.2837C227.683 94.4779 227.683 89.3254 227.988 84.224C228.039 83.1527 227.733 82.1324 224.935 81.1121C223.714 80.653 221.985 80.0408 221.069 82.1324C218.576 88.1521 217.609 92.8965 217.406 94.835C217.406 94.937 217.253 94.937 217.253 94.733C217.101 93.2025 216.795 90.3457 216.744 84.428C216.744 83.2547 216.49 82.2854 215.218 81.4692C214.404 80.9591 211.911 80.0408 210.996 81.1121C210.232 82.0304 209.317 84.428 208.35 87.2849C207.587 89.6315 207.078 91.213 207.078 91.213C207.078 91.213 207.078 84.9382 207.078 82.5405C207.078 81.6222 206.468 81.3162 206.264 81.2651C205.45 81.0101 203.771 80.602 203.11 80.602C202.245 80.602 202.042 81.0611 202.042 81.7753C202.042 81.8773 201.889 90.0396 201.889 95.7533C201.889 96.0083 201.889 96.2634 201.889 96.5695C201.431 99.2222 199.854 102.793 198.175 102.793C196.496 102.793 195.682 101.314 195.682 94.4779C195.682 90.4988 195.784 88.7643 195.835 85.9075C195.886 84.275 195.937 82.9996 195.937 82.6935C195.937 81.8263 194.41 81.3672 193.698 81.2141C192.986 81.0611 192.375 80.9591 191.867 81.0101C191.205 81.0611 190.696 81.5202 190.696 82.1324C190.696 82.4895 190.696 83.1017 190.696 83.1017C189.832 81.7243 188.407 80.755 187.44 80.4489C184.897 79.6837 182.251 80.3469 180.216 83.1527C178.639 85.3973 177.672 87.897 177.265 91.5701C177.011 94.2228 177.062 96.9266 177.571 99.2222C176.96 101.773 175.892 102.844 174.671 102.844C172.941 102.844 171.669 99.9875 171.822 95.0391C171.924 91.7741 172.585 89.4785 173.297 86.1625C173.602 84.7341 173.348 84.0199 172.738 83.3057C172.178 82.6425 170.957 82.3364 169.227 82.7446C168.006 83.0506 166.226 83.3567 164.598 83.6118C164.598 83.6118 164.699 83.2037 164.75 82.5405C165.157 78.9185 161.24 79.2246 160.019 80.3979C159.256 81.0611 158.747 81.8773 158.594 83.3567C158.289 85.6524 160.171 86.7747 160.171 86.7747C159.561 89.6315 158.035 93.3046 156.458 96.0083C155.644 97.4367 154.982 98.508 154.168 99.6304C154.168 99.2222 154.168 98.7631 154.168 98.355C154.168 92.3863 154.219 87.693 154.27 86.0095C154.321 84.377 154.372 83.1017 154.372 82.8466C154.372 82.1834 153.965 81.9793 153.202 81.6222C152.489 81.3672 151.675 81.1631 150.81 81.1121C149.742 81.0101 149.081 81.6222 149.081 82.2854C149.081 82.4385 149.081 83.2037 149.081 83.2037C148.216 81.8263 146.791 80.857 145.825 80.5509C143.281 79.7857 140.635 80.4489 138.6 83.2547C137.023 85.4993 135.955 88.6112 135.65 91.6211C135.395 94.4269 135.446 96.8246 135.802 98.8141C135.395 100.804 134.225 102.895 132.902 102.895C131.224 102.895 130.257 101.416 130.257 94.5799C130.257 90.6008 130.359 88.8663 130.41 86.0095C130.46 84.377 130.511 83.1017 130.511 82.7956C130.511 81.9283 128.985 81.4692 128.273 81.3162C127.51 81.1631 126.899 81.0611 126.39 81.1121C125.729 81.1631 125.271 81.7243 125.271 82.1834V83.2037C124.406 81.8263 122.982 80.857 122.015 80.5509C119.471 79.7857 116.826 80.4999 114.791 83.2547C113.468 85.0912 112.4 87.1318 111.84 91.5701C111.688 92.8454 111.637 94.0698 111.637 95.1921C111.128 98.406 108.788 102.13 106.905 102.13C105.786 102.13 104.718 99.9875 104.718 95.3451C104.718 89.2234 105.074 80.4999 105.176 79.6327C105.176 79.6327 107.567 79.5817 108.025 79.5817C109.195 79.5817 110.314 79.5817 111.891 79.5306C112.705 79.4796 113.468 76.6228 112.654 76.2657C112.298 76.1127 109.653 75.9596 108.584 75.9596C107.719 75.9596 105.277 75.7556 105.277 75.7556C105.277 75.7556 105.481 69.9399 105.532 69.3277C105.583 68.8176 104.921 68.5625 104.565 68.4095C103.649 68.0014 102.835 67.8483 101.869 67.6443C100.546 67.3892 99.9355 67.6443 99.7828 68.7666C99.5793 70.5011 99.5285 75.5515 99.5285 75.5515C98.5618 75.5515 95.1532 75.3475 94.1866 75.3475C93.2708 75.3475 92.3042 79.3266 93.5252 79.3266C95.0006 79.3776 97.5443 79.4286 99.2232 79.4796C99.2232 79.4796 99.1723 88.3562 99.1723 91.1109C99.1723 91.417 99.1723 91.6721 99.1723 91.9782C98.2566 96.8246 95.0006 99.4263 95.0006 99.4263C95.7128 96.2124 94.2883 93.8147 91.6937 91.7741C90.7271 91.0089 88.8447 89.5805 86.7588 88.0501C86.7588 88.0501 87.9798 86.8257 89.0482 84.428C89.8113 82.6935 89.8622 80.755 87.9798 80.3469C84.8765 79.6327 82.3327 81.9283 81.5696 84.377C80.9591 86.2646 81.3152 87.642 82.4345 89.1214C82.5362 89.2234 82.5871 89.3254 82.6888 89.4275C81.9766 90.8049 81.01 92.5904 80.196 94.0188C77.9575 97.9469 76.2277 101.059 74.9558 101.059C73.9383 101.059 73.9383 97.8959 73.9383 94.988C73.9383 92.4373 74.1418 88.6112 74.2945 84.6831C74.3453 83.3567 73.684 82.6425 72.6156 81.9793C71.9542 81.5712 70.5297 80.755 69.7157 80.755C68.4947 80.755 64.9335 80.908 61.5757 90.6518C61.1687 91.8762 60.3038 94.1208 60.3038 94.1208L60.3547 82.4385C60.3547 82.1834 60.2021 81.8773 59.8968 81.7243C59.3372 81.4182 57.811 80.806 56.4882 80.806C55.8268 80.806 55.5216 81.1121 55.5216 81.6733L55.4198 99.9365C55.4198 101.314 55.4707 102.946 55.5725 103.661C55.7251 104.375 55.9286 104.936 56.183 105.293C56.4373 105.65 56.7935 105.905 57.3022 106.007C57.811 106.109 60.4565 106.466 60.6091 105.446C60.7617 104.222 60.7617 102.895 62.1862 97.9979C64.3738 90.3457 67.172 86.5706 68.5456 85.2443C68.8 84.9892 69.0543 84.9892 69.0543 85.3973C69.0035 87.0808 68.8 91.264 68.6473 94.835C68.2912 104.375 70.021 106.16 72.5138 106.16C74.3962 106.16 77.0926 104.273 79.9416 99.4773C81.7222 96.5185 83.452 93.5596 84.7238 91.468C85.5887 92.2843 86.5553 93.1515 87.522 94.0698C89.7605 96.2124 90.5236 98.253 90.0148 100.192C89.6587 101.671 88.2342 103.201 85.6905 101.722C84.9782 101.314 84.6221 100.957 83.9098 100.447C83.5028 100.192 82.8923 100.089 82.5362 100.396C81.5696 101.11 81.0608 102.028 80.7556 103.15C80.4503 104.222 81.5696 104.834 82.6888 105.344C83.6555 105.803 85.7413 106.16 87.115 106.211C92.3042 106.364 96.5268 103.712 99.4267 96.7225C99.9355 102.742 102.174 106.16 105.99 106.16C108.584 106.16 111.128 102.844 112.247 99.5283C112.552 100.855 113.061 102.028 113.672 102.997C116.622 107.691 122.371 106.67 125.271 102.691C126.187 101.467 126.289 101.008 126.289 101.008C126.696 104.783 129.748 106.109 131.478 106.109C133.411 106.109 135.446 105.191 136.82 102.028C136.972 102.385 137.176 102.691 137.379 102.997C140.33 107.691 146.079 106.67 148.979 102.691C149.132 102.487 149.233 102.334 149.335 102.181L149.437 104.681C149.437 104.681 147.809 106.211 146.791 107.129C142.314 111.211 138.957 114.323 138.702 117.945C138.397 122.536 142.111 124.27 144.96 124.474C147.961 124.73 150.505 123.046 152.082 120.75C153.456 118.71 154.372 114.323 154.321 109.935C154.27 108.201 154.27 105.956 154.219 103.61C155.796 101.773 157.526 99.4773 159.154 96.7736C160.935 93.8147 162.817 89.8866 163.784 86.8257C163.784 86.8257 165.412 86.8257 167.192 86.7237C167.752 86.6727 167.904 86.8257 167.803 87.2338C167.701 87.744 165.564 95.8553 167.497 101.263C168.82 104.936 171.771 106.16 173.501 106.16C175.536 106.16 177.52 104.63 178.537 102.283C178.639 102.538 178.792 102.793 178.944 102.997C181.895 107.691 187.644 106.67 190.544 102.691C191.205 101.773 191.561 101.008 191.561 101.008C192.172 104.936 195.224 106.109 196.954 106.109C198.786 106.109 200.464 105.344 201.889 102.079C201.94 103.558 202.042 104.732 202.194 105.089C202.296 105.293 202.805 105.599 203.161 105.752C204.84 106.364 206.519 106.058 207.129 105.956C207.587 105.854 207.892 105.497 207.943 104.63C208.045 102.283 207.994 98.304 208.706 95.3451C209.927 90.3967 210.996 88.4582 211.555 87.5399C211.86 87.0298 212.166 86.9277 212.217 87.4889C212.217 88.6112 212.318 91.9782 212.776 96.4675C213.132 99.7834 213.59 101.722 213.946 102.334C214.964 104.12 216.185 104.171 217.202 104.171C217.864 104.171 219.186 104.018 219.034 102.844C218.983 102.283 219.085 98.9162 220.255 94.0188C221.018 90.8559 222.29 87.948 222.799 86.9278C222.951 86.5196 223.053 86.8257 223.053 86.9278C222.951 89.1214 222.748 96.2634 223.613 100.192C224.834 105.497 228.293 106.109 229.514 106.109C232.109 106.109 234.245 104.12 234.958 98.9162C235.11 97.5898 234.856 96.6205 234.093 96.6205Z" fill="#262626"/>
</svg>
