<svg width="270" height="180" viewBox="0 0 270 180" fill="none" xmlns="http://www.w3.org/2000/svg">
<rect width="270" height="180" rx="8" fill="#E6E6E6"/>
<mask id="mask0_19296_277" style="mask-type:alpha" maskUnits="userSpaceOnUse" x="35" y="20" width="200" height="140">
<path d="M35 20H235V160H35V20Z" fill="white"/>
</mask>
<g mask="url(#mask0_19296_277)">
<path fill-rule="evenodd" clip-rule="evenodd" d="M118.044 35.3263C124.5 28.5916 133.485 24.4211 143.412 24.4211C156.647 24.4211 168.118 31.7895 174.294 42.7684C179.777 40.3124 185.715 39.0443 191.721 39.0474C215.544 39.0474 234.882 58.5737 234.882 82.6684C234.882 106.763 215.544 126.289 191.721 126.289C188.809 126.289 185.971 125.996 183.191 125.442C177.787 135.095 167.456 141.653 155.691 141.653C150.901 141.662 146.173 140.573 141.868 138.469C136.39 151.364 123.632 160.427 108.78 160.427C93.2648 160.427 80.1031 150.627 75.0295 136.848C72.7714 137.326 70.4697 137.566 68.1619 137.565C49.706 137.565 34.7795 122.386 34.7795 103.744C34.7795 91.2173 41.5001 80.312 51.4707 74.4173C49.3555 69.5342 48.2667 64.2669 48.2722 58.9436C48.2722 37.4278 65.6987 20.0383 87.1693 20.0383C99.7428 20.0383 110.993 26.0436 118.052 35.3646" fill="black"/>
<path fill-rule="evenodd" clip-rule="evenodd" d="M63.9266 92.8001C63.8008 93.1287 63.9714 93.1972 64.0119 93.2554C64.3876 93.5281 64.7692 93.7255 65.1516 93.9473C67.1957 95.0305 69.1222 95.3473 71.1369 95.3473C75.2398 95.3473 77.7913 93.1589 77.7913 89.6368V89.5675C77.7913 86.3107 74.9089 85.1244 72.2178 84.277L71.8655 84.1628C69.8288 83.5011 68.0714 82.9249 68.0714 81.5839V81.5153C68.0714 80.3659 69.1008 79.5185 70.6891 79.5185C72.4538 79.5185 74.5567 80.1072 75.9023 80.8522C75.9023 80.8522 76.3008 81.1101 76.4457 80.7247C76.5244 80.5162 77.2104 78.6763 77.2839 78.47C77.3619 78.2541 77.2251 78.0912 77.0847 78.0072C75.5405 77.0641 73.4082 76.423 71.2023 76.423L70.7928 76.4245C67.0354 76.4245 64.4104 78.7013 64.4104 81.9582V82.0282C64.4104 85.4619 67.3075 86.5819 70.0133 87.3555L70.4486 87.4911C72.4192 88.0983 74.1251 88.6258 74.1251 90.0111V90.0804C74.1251 91.3551 73.0148 92.3056 71.2354 92.3056C70.5435 92.3056 68.3383 92.2938 65.9486 90.7804C65.6597 90.6116 65.495 90.4901 65.2722 90.3537C65.1545 90.2823 64.8604 90.1533 64.7325 90.5394L63.9236 92.7942L63.9266 92.8001ZM123.997 92.7942C123.871 93.1228 124.042 93.1913 124.084 93.2495C124.458 93.5222 124.841 93.7196 125.224 93.9414C127.268 95.0246 129.194 95.3414 131.209 95.3414C135.312 95.3414 137.863 93.153 137.863 89.6309V89.5616C137.863 86.3048 134.988 85.1185 132.29 84.2711L131.938 84.1569C129.901 83.4952 128.143 82.919 128.143 81.578V81.5094C128.143 80.36 129.173 79.5126 130.761 79.5126C132.526 79.5126 134.621 80.1013 135.974 80.8463C135.974 80.8463 136.373 81.1042 136.518 80.7188C136.596 80.5103 137.283 78.6704 137.349 78.4641C137.428 78.2482 137.291 78.0853 137.151 78.0013C135.607 77.0582 133.474 76.4171 131.268 76.4171L130.858 76.4186C127.101 76.4186 124.476 78.6954 124.476 81.9523V82.0223C124.476 85.456 127.373 86.576 130.079 87.3496L130.513 87.4852C132.491 88.0924 134.19 88.62 134.19 90.0052V90.0745C134.19 91.3492 133.08 92.2997 131.3 92.2997C130.607 92.2997 128.396 92.288 126.013 90.7745C125.724 90.6057 125.555 90.4893 125.336 90.3479C125.262 90.3007 124.916 90.1651 124.797 90.5335L123.988 92.7883L123.997 92.7942ZM165.018 85.8914C165.018 87.8809 164.647 89.4504 163.922 90.563C163.199 91.6609 162.106 92.1988 160.584 92.1988C159.062 92.1988 157.974 91.6653 157.26 90.5704C156.542 89.4651 156.18 87.8883 156.18 85.8988C156.18 83.9093 156.544 82.3472 157.26 81.2493C157.972 80.1588 159.055 79.6356 160.584 79.6356C162.113 79.6356 163.202 80.164 163.922 81.2493C164.652 82.3472 165.018 83.9093 165.018 85.8988V85.8914ZM168.444 82.2072C168.107 81.0651 167.584 80.063 166.885 79.223C166.186 78.383 165.305 77.7051 164.253 77.2188C163.209 76.7288 161.974 76.482 160.577 76.482C159.18 76.482 157.952 76.7303 156.9 77.2188C155.856 77.7081 154.966 78.383 154.268 79.223C153.571 80.063 153.047 81.0651 152.709 82.2072C152.374 83.342 152.205 84.5798 152.205 85.8988C152.205 87.2177 152.374 88.4556 152.709 89.5904C153.045 90.7325 153.569 91.7346 154.268 92.5746C154.967 93.4146 155.856 94.0851 156.9 94.5641C157.952 95.0415 159.187 95.2847 160.577 95.2847C161.966 95.2847 163.202 95.0415 164.246 94.5641C165.29 94.0866 166.18 93.4146 166.878 92.5746C167.576 91.7346 168.099 90.7325 168.437 89.5904C168.771 88.4556 168.941 87.2177 168.941 85.8988C168.941 84.5872 168.771 83.342 168.437 82.2072H168.444ZM196.599 91.6388C196.486 91.305 196.161 91.431 196.161 91.431C195.663 91.6219 195.132 91.7987 194.566 91.8871C193.995 91.977 193.36 92.022 192.691 92.022C191.036 92.022 189.713 91.5275 188.771 90.5483C187.823 89.5683 187.293 87.9914 187.301 85.8546C187.306 83.9093 187.775 82.4504 188.617 81.3304C189.448 80.2251 190.727 79.6504 192.419 79.6504C193.83 79.6504 194.911 79.8147 196.044 80.1698C196.044 80.1698 196.312 80.287 196.441 79.9326C196.741 79.1 196.963 78.5031 197.286 77.5894C197.377 77.3278 197.154 77.2173 197.072 77.1856C196.628 77.0117 195.58 76.7266 194.785 76.6065C194.043 76.493 193.182 76.4341 192.212 76.4341C190.771 76.4341 189.491 76.6809 188.396 77.1702C187.3 77.6587 186.374 78.3344 185.638 79.1744C184.903 80.0144 184.344 81.0165 183.969 82.1586C183.598 83.2933 183.41 84.5386 183.41 85.8575C183.41 88.7017 184.175 91.0081 185.69 92.6954C187.205 94.3902 189.484 95.2449 192.455 95.2449C194.212 95.2449 196.013 94.889 197.307 94.3754C197.307 94.3754 197.555 94.2561 197.447 93.9672L196.602 91.6388H196.599ZM202.594 83.9756C202.758 82.8704 203.06 81.9493 203.535 81.2346C204.246 80.1441 205.33 79.5472 206.852 79.5472C208.374 79.5472 209.381 80.147 210.102 81.2346C210.58 81.953 210.788 82.9072 210.866 83.9756L202.557 83.9742L202.594 83.9756ZM214.138 81.5441C213.846 80.4462 213.124 79.3335 212.653 78.8251C211.903 78.022 211.175 77.4546 210.447 77.1451C209.396 76.6973 208.266 76.4674 207.124 76.4694C205.675 76.4694 204.359 76.7148 203.293 77.2136C202.227 77.7162 201.33 78.4 200.624 79.2547C199.919 80.1094 199.388 81.1189 199.05 82.2757C198.712 83.4178 198.541 84.6705 198.541 85.9821C198.541 87.3231 198.718 88.5684 199.067 89.6957C199.419 90.8305 199.986 91.8252 200.751 92.6505C201.516 93.4831 202.493 94.1315 203.67 94.5884C204.839 95.0415 206.258 95.2766 207.883 95.2714C211.236 95.2604 213.001 94.5125 213.721 94.1072C213.85 94.035 213.971 93.9105 213.82 93.5516L213.063 91.4222C212.946 91.1046 212.626 91.2195 212.626 91.2195C211.795 91.5305 210.618 92.089 207.861 92.0816C206.06 92.0787 204.729 91.546 203.891 90.7111C203.038 89.8564 202.611 88.6111 202.545 86.8427L214.163 86.8515C214.163 86.8515 214.468 86.8486 214.5 86.5494C214.513 86.4256 214.898 84.1621 214.154 81.5463L214.138 81.5441ZM109.727 83.9756C109.891 82.8704 110.193 81.9493 110.668 81.2346C111.38 80.1441 112.462 79.5472 113.984 79.5472C115.506 79.5472 116.513 80.147 117.234 81.2346C117.711 81.953 117.92 82.9072 117.999 83.9756L109.69 83.9742L109.727 83.9756ZM121.271 81.5441C120.98 80.4462 120.256 79.3335 119.785 78.8251C119.035 78.022 118.307 77.4546 117.58 77.1451C116.529 76.6973 115.398 76.4674 114.256 76.4694C112.807 76.4694 111.491 76.7148 110.425 77.2136C109.359 77.7162 108.462 78.4 107.756 79.2547C107.052 80.1094 106.521 81.1189 106.182 82.2757C105.845 83.4178 105.675 84.6705 105.675 85.9821C105.675 87.3231 105.851 88.5684 106.202 89.6957C106.553 90.8305 107.121 91.8252 107.878 92.6505C108.643 93.4831 109.621 94.1315 110.797 94.5884C111.966 95.0415 113.378 95.2766 115.01 95.2714C118.363 95.2604 120.128 94.5125 120.849 94.1072C120.977 94.035 121.099 93.9105 120.946 93.5516L120.189 91.4222C120.072 91.1046 119.752 91.2195 119.752 91.2195C118.921 91.5305 117.744 92.089 114.987 92.0816C113.193 92.0787 111.855 91.546 111.016 90.7111C110.163 89.8564 109.737 88.6111 109.671 86.8427L121.288 86.8515C121.288 86.8515 121.594 86.8486 121.626 86.5494C121.638 86.4256 122.024 84.1621 121.279 81.5463L121.271 81.5441ZM84.653 91.5651C84.1979 91.2011 84.1347 91.112 83.9839 90.8754C83.7538 90.5195 83.6361 90.0133 83.6361 89.3649C83.6361 88.3481 83.9744 87.6112 84.6729 87.1175C84.6655 87.119 85.6729 86.2481 88.0406 86.2775C89.0944 86.2964 90.1458 86.3863 91.1876 86.5465V91.8296H91.1891C91.1891 91.8296 89.7185 92.1472 88.0567 92.2474C85.6964 92.3896 84.6523 91.5666 84.6597 91.5688L84.653 91.5651ZM89.2707 83.3862C88.8001 83.3515 88.1898 83.3346 87.4619 83.3346C86.4692 83.3346 85.506 83.4584 84.6089 83.7015C83.7045 83.9462 82.8883 84.3249 82.1898 84.8289C81.4894 85.3297 80.9132 85.9852 80.506 86.7447C80.095 87.511 79.8854 88.41 79.8854 89.4268C79.8854 90.4584 80.0641 91.35 80.417 92.0794C80.7629 92.803 81.2835 93.4286 81.9317 93.8994C82.5766 94.3695 83.3729 94.7173 84.292 94.9236C85.2038 95.1322 86.2332 95.2375 87.3656 95.2375C88.5567 95.2375 89.7406 95.1373 90.8876 94.9435C91.8646 94.7747 92.8378 94.585 93.8067 94.3747C94.1935 94.2855 94.6229 94.1684 94.6229 94.1684C94.9097 94.0954 94.8876 93.7882 94.8876 93.7882L94.881 83.1776C94.881 80.8492 94.2604 79.1176 93.0354 78.0492C91.8148 76.9808 90.0281 76.4429 87.7119 76.4429C86.8442 76.4429 85.4398 76.5608 84.6016 76.7295C84.6016 76.7295 82.0722 77.2217 81.0281 78.0411C81.0281 78.0411 80.7986 78.1826 80.9236 78.5031L81.7472 80.7136C81.8494 81.0003 82.128 80.9023 82.128 80.9023C82.128 80.9023 82.2156 80.8676 82.3185 80.8065C84.5464 79.5907 87.37 79.6275 87.37 79.6275C88.62 79.6275 89.5905 79.8817 90.2376 80.3791C90.8707 80.8662 91.1935 81.6023 91.1935 83.1496V83.6411C90.2008 83.4967 89.2817 83.4134 89.2817 83.4134L89.2707 83.3862ZM182.653 77.3956C182.67 77.3568 182.679 77.3149 182.679 77.2726C182.679 77.2303 182.671 77.1884 182.655 77.1493C182.638 77.1103 182.614 77.0749 182.584 77.0453C182.554 77.0157 182.518 76.9925 182.479 76.9771C182.281 76.902 181.295 76.6934 180.538 76.6463C179.082 76.5549 178.273 76.801 177.545 77.1282C176.826 77.4531 176.03 77.9755 175.589 78.5797L175.588 77.165C175.588 76.9705 175.45 76.8135 175.255 76.8135H172.284C172.091 76.8135 171.952 76.9705 171.952 77.165V94.4808C171.952 94.5743 171.989 94.664 172.055 94.7302C172.121 94.7963 172.21 94.8335 172.304 94.8337H175.348C175.441 94.8335 175.531 94.7963 175.596 94.7301C175.662 94.6639 175.699 94.5743 175.699 94.4808V85.7861C175.699 84.6218 175.827 83.465 176.082 82.7355C176.334 82.0142 176.676 81.4387 177.097 81.0261C177.499 80.6275 177.991 80.3318 178.531 80.164C179.038 80.0182 179.563 79.9443 180.09 79.9444C180.696 79.9444 181.362 80.1006 181.362 80.1006C181.585 80.1256 181.71 79.9886 181.785 79.7867C181.985 79.2554 182.55 77.6646 182.66 77.3477" fill="#FFFFFE"/>
<path fill-rule="evenodd" clip-rule="evenodd" d="M154.221 69.4037C153.845 69.2897 153.462 69.1987 153.075 69.131C152.554 69.0439 152.027 69.003 151.499 69.0087C149.401 69.0087 147.747 69.6026 146.586 70.7757C145.433 71.9399 144.649 73.7134 144.255 76.047L144.113 76.8347H141.48C141.48 76.8347 141.159 76.8214 141.091 77.1729L140.659 79.5898C140.629 79.8211 140.728 79.9655 141.037 79.9641H143.6L140.999 94.5116C140.796 95.6831 140.563 96.6469 140.305 97.3771C140.05 98.0978 139.802 98.6379 139.496 99.0299C139.199 99.4093 138.918 99.6886 138.434 99.8514C138.034 99.9863 137.574 100.048 137.069 100.048C136.788 100.048 136.415 100.001 136.139 99.9458C135.863 99.8912 135.72 99.8293 135.513 99.7424C135.513 99.7424 135.213 99.6274 135.094 99.9296C134.998 100.176 134.315 102.059 134.234 102.292C134.152 102.522 134.267 102.703 134.413 102.755C134.754 102.878 135.007 102.956 135.472 103.066C136.118 103.218 136.662 103.228 137.171 103.228C138.239 103.228 139.212 103.077 140.018 102.786C140.83 102.492 141.537 101.979 142.162 101.286C142.838 100.538 143.263 99.7549 143.669 98.6865C144.071 97.6277 144.414 96.3131 144.688 94.7812L147.302 79.9641H151.122C151.122 79.9641 151.444 79.9759 151.511 79.6259L151.943 77.209C151.974 76.9777 151.875 76.8332 151.565 76.8347H147.857C147.875 76.7507 148.043 75.4435 148.469 74.213C148.651 73.6877 148.993 73.264 149.282 72.9729C149.553 72.6957 149.886 72.488 150.254 72.3672C150.657 72.2424 151.077 72.1817 151.499 72.1874C151.848 72.1874 152.191 72.2294 152.452 72.284C152.811 72.3606 152.951 72.4011 153.045 72.4291C153.423 72.5448 153.474 72.4328 153.548 72.2493L154.435 69.8089C154.526 69.5466 154.304 69.4361 154.221 69.4037ZM102.402 94.5425C102.402 94.737 102.264 94.8954 102.07 94.8954H98.9942C98.7994 94.8954 98.6611 94.737 98.6611 94.5425V69.7345C98.6611 69.5407 98.7994 69.3838 98.9942 69.3838H102.07C102.264 69.3838 102.402 69.5407 102.402 69.7345V94.5425Z" fill="#FFFFFE"/>
</g>
</svg>
