<svg width="270" height="180" viewBox="0 0 270 180" fill="none" xmlns="http://www.w3.org/2000/svg">
<rect width="270" height="180" rx="8" fill="#1A1A1A"/>
<path d="M77.9995 72.3385C77.9668 72.0447 77.7054 71.9141 77.5094 71.9141C77.3133 71.9141 73.033 71.5876 73.033 71.5876C73.033 71.5876 70.0596 68.6168 69.7002 68.323C69.3734 67.9966 68.7526 68.0945 68.4912 68.1598C68.4586 68.1598 67.8378 68.3557 66.8248 68.6821C65.8119 65.7766 64.0802 63.1323 60.9761 63.1323H60.6821C59.8325 62.0223 58.7216 61.5 57.8067 61.5C50.6184 61.5 47.1549 70.4777 46.0766 75.0481C43.2666 75.9295 41.2735 76.5172 41.0448 76.6151C39.4764 77.1048 39.4437 77.1374 39.2477 78.6065C39.0843 79.7165 35 111.285 35 111.285L66.7922 117.227L84.0442 113.505C84.0769 113.44 78.0322 72.6323 77.9995 72.3385V72.3385ZM65.0604 69.1392C64.2762 69.3677 63.3287 69.6615 62.3811 69.988V69.4003C62.3811 67.6375 62.1524 66.201 61.7276 65.0584C63.3614 65.2543 64.3743 67.0498 65.0604 69.1392ZM59.7345 65.4175C60.1593 66.5275 60.4533 68.0945 60.4533 70.2491V70.5756C58.6889 71.1306 56.8265 71.6856 54.8987 72.3058C55.977 68.1924 58.0354 66.1684 59.7345 65.4175ZM57.6433 63.3935C57.9701 63.3935 58.2968 63.5241 58.5582 63.7199C56.2383 64.7972 53.7878 67.5069 52.7749 72.9914C51.2392 73.4811 49.7688 73.9055 48.3638 74.3625C49.5401 70.1838 52.4808 63.3935 57.6433 63.3935Z" fill="white"/>
<path d="M77.5096 71.8487C77.3135 71.8487 73.0332 71.5222 73.0332 71.5222C73.0332 71.5222 70.0598 68.5515 69.7004 68.2576C69.5697 68.1271 69.4063 68.0618 69.2756 68.0618L66.8904 117.227L84.1425 113.505C84.1425 113.505 78.0977 72.6322 78.0651 72.3384C77.9344 72.0446 77.7056 71.914 77.5096 71.8487V71.8487Z" fill="#8E8E8E"/>
<path d="M60.9763 81.3814L58.8851 87.6821C58.8851 87.6821 56.99 86.6701 54.7355 86.6701C51.37 86.6701 51.2066 88.7921 51.2066 89.3144C51.2066 92.1872 58.7217 93.2972 58.7217 100.055C58.7217 105.376 55.3563 108.804 50.8145 108.804C45.3252 108.804 42.5806 105.409 42.5806 105.409L44.0509 100.577C44.0509 100.577 46.9263 103.058 49.3442 103.058C50.9452 103.058 51.5987 101.818 51.5987 100.904C51.5987 97.1494 45.4559 96.9862 45.4559 90.7835C45.4559 85.5927 49.1808 80.5652 56.7286 80.5652C59.5386 80.5326 60.9763 81.3814 60.9763 81.3814V81.3814Z" fill="black"/>
<path d="M104.172 93.2319C102.44 92.3178 101.558 91.5017 101.558 90.4243C101.558 89.0532 102.799 88.1718 104.727 88.1718C106.982 88.1718 108.975 89.0859 108.975 89.0859L110.543 84.2869C110.543 84.2869 109.105 83.1769 104.858 83.1769C98.9437 83.1769 94.8267 86.5721 94.8267 91.3384C94.8267 94.0481 96.7545 96.1048 99.3031 97.5738C101.394 98.7164 102.113 99.5652 102.113 100.806C102.113 102.079 101.068 103.124 99.1397 103.124C96.2971 103.124 93.5851 101.655 93.5851 101.655L91.9187 106.454C91.9187 106.454 94.402 108.119 98.5843 108.119C104.662 108.119 109.073 105.115 109.073 99.7285C109.007 96.7903 106.818 94.7663 104.172 93.2319V93.2319ZM128.416 83.1116C125.41 83.1116 123.057 84.5481 121.26 86.7027L121.195 86.6701L123.809 73.0893H117.045L110.445 107.694H117.209L119.463 95.8762C120.345 91.4037 122.665 88.6288 124.822 88.6288C126.358 88.6288 126.946 89.6735 126.946 91.1426C126.946 92.0567 126.88 93.2319 126.652 94.146L124.103 107.694H130.867L133.513 93.7216C133.807 92.2525 134.003 90.4896 134.003 89.2817C133.971 85.3969 131.978 83.1116 128.416 83.1116V83.1116ZM149.295 83.1116C141.126 83.1116 135.735 90.457 135.735 98.6512C135.735 103.875 138.97 108.119 145.047 108.119C153.053 108.119 158.444 100.969 158.444 92.579C158.476 87.7147 155.666 83.1116 149.295 83.1116V83.1116ZM145.962 102.96C143.642 102.96 142.695 101.002 142.695 98.5206C142.695 94.6357 144.688 88.335 148.38 88.335C150.765 88.335 151.582 90.4243 151.582 92.4158C151.582 96.5618 149.524 102.96 145.962 102.96ZM175.794 83.1116C171.219 83.1116 168.638 87.1597 168.638 87.1597H168.573L168.965 83.536H162.953C162.659 85.9845 162.103 89.7388 161.581 92.5137L156.908 117.292H163.672L165.567 107.27H165.73C165.73 107.27 167.135 108.151 169.684 108.151C177.656 108.151 182.852 99.9896 182.852 91.7628C182.819 87.1924 180.76 83.1116 175.794 83.1116V83.1116ZM169.324 103.026C167.56 103.026 166.514 102.014 166.514 102.014L167.625 95.713C168.409 91.469 170.631 88.6941 172.984 88.6941C175.075 88.6941 175.696 90.6202 175.696 92.4158C175.729 96.7903 173.115 103.026 169.324 103.026V103.026ZM192.491 73.4158C190.334 73.4158 188.602 75.146 188.602 77.3333C188.602 79.3247 189.877 80.7285 191.804 80.7285H191.87C193.994 80.7285 195.791 79.292 195.823 76.8109C195.856 74.8195 194.516 73.4158 192.491 73.4158V73.4158ZM183.015 107.661H189.779L194.353 83.634H187.557L183.015 107.661ZM211.605 83.6013H206.9L207.129 82.4914C207.521 80.1735 208.893 78.1494 211.18 78.1494C212.389 78.1494 213.337 78.5085 213.337 78.5085L214.644 73.1872C214.644 73.1872 213.5 72.5996 210.952 72.5996C208.566 72.5996 206.148 73.2852 204.319 74.8522C201.999 76.8109 200.921 79.6512 200.398 82.524L200.202 83.634H197.032L196.019 88.7594H199.189L195.595 107.694H202.358L205.952 88.7594H210.625L211.605 83.6013ZM227.91 83.634C227.91 83.634 223.662 94.3092 221.799 100.153H221.734C221.603 98.2594 220.068 83.634 220.068 83.634H212.945L217.029 105.637C217.094 106.127 217.062 106.421 216.866 106.747C216.081 108.282 214.742 109.751 213.173 110.828C211.899 111.742 210.461 112.362 209.318 112.754L211.213 118.5C212.585 118.206 215.461 117.064 217.846 114.811C220.917 111.938 223.793 107.466 226.733 101.393L235 83.6013H227.91V83.634Z" fill="white"/>
</svg>
