<svg width="270" height="180" viewBox="0 0 270 180" fill="none" xmlns="http://www.w3.org/2000/svg">
<rect width="270" height="180" rx="8" fill="#E6E6E6"/>
<path d="M114.697 106.826V101.829C115.303 102.339 115.909 102.747 116.717 103.155C117.526 103.563 118.334 103.868 119.243 104.174C120.152 104.48 120.96 104.684 121.869 104.786C122.778 104.888 123.586 104.99 124.293 104.99C126.818 104.99 128.738 104.48 130.051 103.563C131.364 102.645 131.97 101.217 131.97 99.3816C131.97 98.3619 131.768 97.5461 131.364 96.8323C130.96 96.1185 130.354 95.4046 129.647 94.8948C128.94 94.2829 128.031 93.7731 127.021 93.1612C126.01 92.6514 124.899 92.0395 123.788 91.4277C122.576 90.8158 121.364 90.102 120.354 89.4902C119.243 88.8783 118.334 88.1645 117.526 87.3487C116.717 86.5329 116.111 85.7171 115.606 84.6974C115.101 83.6777 114.899 82.556 114.899 81.2303C114.899 79.5987 115.303 78.1711 116.01 76.9474C116.717 75.7237 117.627 74.704 118.839 73.9902C119.95 73.1744 121.263 72.6645 122.778 72.2566C124.293 71.8487 125.808 71.6448 127.324 71.6448C130.859 71.6448 133.384 72.0527 135 72.9704V77.7632C132.879 76.3356 130.253 75.5198 126.919 75.5198C126.01 75.5198 125.101 75.6218 124.192 75.8257C123.283 76.0296 122.475 76.3356 121.768 76.7435C121.061 77.1514 120.455 77.7632 120.051 78.477C119.647 79.1908 119.344 80.0066 119.344 81.0264C119.344 81.9441 119.546 82.7599 119.849 83.3718C120.152 84.0856 120.657 84.6974 121.364 85.2073C122.071 85.7171 122.879 86.329 123.788 86.8389C124.697 87.3487 125.808 87.9606 127.021 88.5724C128.334 89.1843 129.546 89.8981 130.657 90.6119C131.768 91.3257 132.778 92.1415 133.687 92.9573C134.596 93.7731 135.202 94.7928 135.707 95.8125C136.212 96.8323 136.414 98.056 136.414 99.3816C136.414 101.115 136.111 102.645 135.404 103.868C134.697 105.092 133.788 106.112 132.677 106.826C131.465 107.641 130.152 108.151 128.637 108.457C127.122 108.763 125.505 108.967 123.788 108.967C123.182 108.967 122.576 108.967 121.667 108.865C120.859 108.763 119.95 108.661 119.142 108.457C118.334 108.253 117.425 108.049 116.717 107.845C115.707 107.438 115.101 107.132 114.697 106.826Z" fill="black"/>
<path d="M160.858 108.253H155.101L143.989 95.9145H143.888V108.253H139.747V70.1151H143.888V94.2829H143.989L154.596 82.4539H159.949L148.131 94.8947L160.858 108.253Z" fill="black"/>
<path d="M184.798 82.454L173.182 112.332C171.06 117.635 168.131 120.286 164.394 120.286C163.384 120.286 162.475 120.184 161.768 119.98V116.309C162.677 116.615 163.485 116.717 164.192 116.717C166.212 116.717 167.727 115.494 168.838 113.046L170.858 108.151L160.959 82.454H165.505L172.374 102.237C172.475 102.441 172.677 103.155 172.879 104.174H172.98C173.081 103.767 173.182 103.155 173.485 102.237L180.656 82.3521H184.798V82.454Z" fill="black"/>
<path d="M191.161 94.181V97.7501C191.161 99.8915 191.869 101.727 193.182 103.155C194.596 104.684 196.313 105.398 198.333 105.398C200.757 105.398 202.677 104.48 204.091 102.543C205.505 100.605 206.212 97.954 206.212 94.5889C206.212 91.7336 205.606 89.4902 204.293 87.8586C202.98 86.227 201.263 85.4112 199.04 85.4112C196.717 85.4112 194.798 86.227 193.384 87.9606C191.869 89.4902 191.161 91.6316 191.161 94.181ZM191.263 104.48L191.161 120.082H187.121V82.454H191.161V86.9408H191.263C193.283 83.4737 196.212 81.8422 200.05 81.8422C203.283 81.8422 205.909 82.9639 207.727 85.3093C209.545 87.6547 210.454 90.7139 210.454 94.5889C210.454 98.8718 209.444 102.339 207.323 104.888C205.303 107.438 202.475 108.763 198.838 108.763C195.606 108.865 192.98 107.438 191.263 104.48Z" fill="black"/>
<path d="M230.859 92.9573C230.859 90.6119 230.253 88.6744 229.142 87.3487C228.03 86.023 226.515 85.4112 224.495 85.4112C222.576 85.4112 220.96 86.125 219.647 87.4507C218.333 88.8783 217.525 90.6119 217.121 92.9573H230.859ZM235 96.4244H217.121C217.222 99.2796 217.929 101.523 219.445 103.053C220.859 104.582 222.879 105.398 225.404 105.398C228.232 105.398 230.859 104.48 233.283 102.543V106.418C231.061 108.049 228.131 108.865 224.394 108.865C220.859 108.865 218.03 107.743 215.909 105.398C213.889 103.053 212.879 99.7895 212.879 95.5066C212.879 91.5296 213.99 88.2665 216.212 85.7171C218.434 83.1678 221.263 81.9441 224.596 81.9441C227.929 81.9441 230.455 83.0658 232.273 85.2072C234.091 87.3487 235 90.4079 235 94.2829V96.4244Z" fill="black"/>
<path d="M65.6061 108.763C55.404 108.763 50.7576 103.563 50.7576 99.6875C50.7576 97.75 52.2727 96.3224 54.2929 96.3224C58.6364 96.3224 57.5252 102.951 65.7071 102.951C69.8485 102.951 72.2727 100.401 72.2727 98.0559C72.2727 96.6283 71.4646 94.9967 68.7374 94.3849L59.6465 92.0395C52.3737 90.204 51.0606 86.023 51.0606 82.25C51.0606 74.398 58.2323 71.5428 65 71.5428C71.2626 71.5428 78.7374 75.0099 78.7374 79.8026C78.7374 81.8421 77.0202 82.9638 75.101 82.9638C71.3636 82.9638 71.9697 77.6612 64.4949 77.6612C60.7576 77.6612 58.8384 79.3947 58.8384 81.8421C58.8384 84.2895 61.7677 85.1053 64.2929 85.7171L70.9596 87.2467C78.3333 88.8783 80.2525 93.2632 80.2525 97.4441C80.2525 103.766 75.303 108.763 65.6061 108.763ZM93.7879 95.0987C94.0909 93.4671 94.1919 91.7336 94.1919 90C94.1919 73.8882 81.3636 60.8355 65.505 60.8355C63.7879 60.8355 62.1717 60.9375 60.5555 61.2434C58.0303 59.8158 55.202 59 52.0707 59C42.6768 59 35 66.75 35 76.3355C35 79.4967 35.8081 82.352 37.2222 84.9013C36.9192 86.5329 36.8182 88.2664 36.8182 90C36.8182 106.112 49.6465 119.164 65.505 119.164C67.2222 119.164 68.8384 119.062 70.4545 118.757C72.9798 120.184 75.8081 121 78.9394 121C88.3333 121 96.0101 113.25 96.0101 103.664C96.0101 100.605 95.202 97.648 93.7879 95.0987Z" fill="black"/>
</svg>
