<svg width="270" height="180" viewBox="0 0 270 180" fill="none" xmlns="http://www.w3.org/2000/svg">
<rect width="270" height="180" rx="8" fill="#E6E6E6"/>
<path d="M37.265 84.9437C36.8477 84.9437 36.5165 85.2664 36.4625 85.7266L35 96.8349L36.4625 107.752C36.5165 108.212 36.8475 108.533 37.265 108.533C37.6692 108.533 37.9984 108.214 38.0629 107.756L39.7964 96.8347L38.0629 85.7243C38.0004 85.2662 37.6672 84.9437 37.265 84.9437ZM45.4899 78.8745C45.421 78.3972 45.0791 78.068 44.6575 78.068C44.2337 78.068 43.8831 78.4079 43.8251 78.8745C43.8251 78.8787 41.8592 96.8349 41.8592 96.8349L43.8251 114.398C43.8811 114.869 44.2317 115.208 44.6575 115.208C45.0768 115.208 45.419 114.877 45.4877 114.402L47.7244 96.8349L45.4899 78.8745ZM76.4712 62.3077C75.6647 62.3077 74.9978 62.9679 74.9592 63.8067L73.3934 96.8499L74.9592 118.204C75 119.039 75.6647 119.697 76.4712 119.697C77.2735 119.697 77.9382 119.036 77.9855 118.2V118.206L79.7556 96.8499L77.9855 63.8067C77.938 62.9679 77.2733 62.3077 76.4712 62.3077ZM60.4363 73.7923C59.8169 73.7923 59.3115 74.287 59.2618 74.9472L57.4981 96.8412L59.2618 118.023C59.3091 118.679 59.8167 119.174 60.4363 119.174C61.0493 119.174 61.5547 118.679 61.6087 118.023L63.6132 96.8412L61.6087 74.9427C61.5547 74.287 61.0493 73.7923 60.4363 73.7923ZM92.7664 119.695C93.7665 119.695 94.5796 118.888 94.6204 117.856L96.1563 96.8606L94.6226 52.868C94.5818 51.8356 93.7686 51.0292 92.7686 51.0292C91.7598 51.0292 90.9448 51.8379 90.9122 52.8703L89.5507 96.8584L90.9122 117.862C90.9445 118.886 91.7596 119.695 92.7664 119.695ZM126.127 119.794C127.503 119.794 128.639 118.66 128.665 117.267L129.736 96.8735L128.664 46.0654C128.641 44.674 127.503 43.5385 126.126 43.5385C124.748 43.5385 123.61 44.672 123.588 46.0677L122.631 96.8563C122.631 96.8887 123.588 117.279 123.588 117.279C123.61 118.66 124.75 119.794 126.127 119.794ZM109.319 119.714C110.518 119.714 111.483 118.753 111.516 117.527V117.542L112.819 96.865L111.513 52.5542C111.481 51.3282 110.515 50.3692 109.317 50.3692C108.111 50.3692 107.145 51.3284 107.119 52.5542L105.96 96.8673L107.121 117.54C107.147 118.753 108.113 119.714 109.319 119.714ZM68.4226 119.52C69.1345 119.52 69.7111 118.95 69.7648 118.2L71.6534 96.8414L69.7648 76.5237C69.7133 75.7732 69.1369 75.2074 68.4226 75.2074C67.7001 75.2074 67.1235 75.7773 67.0785 76.5324L65.4157 96.8414L67.0785 118.198C67.1257 118.95 67.6999 119.52 68.4226 119.52ZM52.5148 118.35C53.0352 118.35 53.4567 117.94 53.517 117.372L55.6377 96.8369L53.519 75.5279C53.4565 74.9581 53.035 74.5471 52.5146 74.5471C51.9875 74.5471 51.566 74.9601 51.5122 75.5279L49.6453 96.8369L51.5122 117.368C51.564 117.937 51.9855 118.35 52.5148 118.35ZM117.691 51.8165C116.39 51.8165 115.346 52.8511 115.321 54.1759L114.262 96.8693L115.321 117.413C115.346 118.72 116.387 119.755 117.691 119.755C118.99 119.755 120.027 118.722 120.057 117.398V117.415L121.244 96.8715L120.057 54.1714C120.027 52.8511 118.99 51.8165 117.691 51.8165ZM84.5886 119.738C85.4877 119.738 86.2298 119.004 86.2728 118.069L87.9247 96.8561L86.2728 56.2554C86.2276 55.3176 85.4877 54.5865 84.5886 54.5865C83.681 54.5865 82.9412 55.3198 82.9023 56.2554L81.4398 96.8561L82.9046 118.077C82.941 119.004 83.6808 119.738 84.5886 119.738ZM103.035 117.735V117.724L104.454 96.8628L103.035 51.3885C103 50.2595 102.11 49.3734 101.01 49.3734C99.9048 49.3734 99.0144 50.2573 98.9845 51.3885L97.7241 96.8606L98.9865 117.733C99.0167 118.851 99.9073 119.735 101.011 119.735C102.112 119.735 102.998 118.851 103.035 117.727L103.035 117.735ZM210.402 70.6501C207.032 70.6501 203.816 71.3319 200.887 72.5599C198.929 50.3906 180.337 33 157.658 33C152.109 33 146.7 34.0926 141.923 35.94C140.066 36.6583 139.572 37.3981 139.554 38.8326V116.903C139.574 118.408 140.742 119.662 142.211 119.811C142.273 119.817 209.961 119.851 210.4 119.851C223.985 119.851 235 108.838 235 95.2519C235 81.6659 223.987 70.6501 210.402 70.6501ZM134.526 38.7639C133.048 38.7639 131.835 39.977 131.813 41.4673L130.703 96.88L131.816 116.991C131.835 118.46 133.048 119.671 134.526 119.671C135.999 119.671 137.212 118.46 137.233 116.97V116.993L138.44 96.88L137.233 41.463C137.212 39.977 135.999 38.7639 134.526 38.7639ZM54.8657 135.489C51.9556 134.805 51.1683 134.44 51.1683 133.287C51.1683 132.474 51.8242 131.633 53.7902 131.633C55.47 131.633 56.7821 132.315 57.9609 133.521L60.6087 130.954C58.8774 129.145 56.7801 128.069 53.9238 128.069C50.3017 128.069 47.3657 130.115 47.3657 133.446C47.3657 137.063 49.7276 138.139 53.1087 138.924C56.5693 139.709 57.1997 140.236 57.1997 141.417C57.1997 142.806 56.1736 143.41 54.0012 143.41C52.244 143.41 50.5921 142.808 49.306 141.309L46.6578 143.671C48.0472 145.716 50.7251 147 53.79 147C58.8016 147 61.004 144.641 61.004 141.154C61.0042 137.167 57.7778 136.171 54.8657 135.489ZM71.7585 128.069C66.7513 128.069 63.7894 131.949 63.7894 137.535C63.7894 143.12 66.7511 146.998 71.7585 146.998C76.7659 146.998 79.7318 143.12 79.7318 137.535C79.7318 131.949 76.7659 128.069 71.7585 128.069ZM71.7585 143.357C68.7968 143.357 67.5621 140.812 67.5621 137.537C67.5621 134.259 68.7966 131.715 71.7585 131.715C74.7246 131.715 75.9549 134.259 75.9549 137.537C75.9549 140.812 74.7246 143.357 71.7585 143.357ZM94.5494 138.664C94.5494 141.599 93.1041 143.41 90.7726 143.41C88.4388 143.41 87.0234 141.548 87.0234 138.612V128.356H83.3498V138.664C83.3498 144.011 86.3417 147 90.7724 147C95.4398 147 98.2208 143.931 98.2208 138.612V128.356H94.5494V138.664ZM114.058 136.12C114.058 137.143 114.109 139.449 114.109 140.131C113.873 139.657 113.271 138.741 112.825 138.057L106.319 128.353H102.806V146.712H106.427V138.634C106.427 137.61 106.375 135.304 106.375 134.623C106.609 135.094 107.216 136.012 107.659 136.696L114.4 146.712H117.678V128.353H114.058L114.058 136.12ZM128.14 128.356H122.397V146.714H127.875C132.596 146.714 137.266 143.985 137.266 137.535C137.266 130.82 133.384 128.356 128.14 128.356ZM127.875 143.148H126.069V131.924H128.009C131.891 131.924 133.491 133.784 133.491 137.535C133.491 140.892 131.732 143.148 127.875 143.148ZM148.62 131.713C150.272 131.713 151.322 132.448 151.978 133.706L155.387 132.134C154.232 129.749 152.133 128.069 148.672 128.069C143.877 128.069 140.518 131.949 140.518 137.535C140.518 143.329 143.742 146.998 148.54 146.998C151.872 146.998 154.075 145.452 155.333 142.855L152.24 141.019C151.27 142.647 150.298 143.355 148.646 143.355C145.893 143.355 144.292 140.836 144.292 137.535C144.291 134.128 145.869 131.713 148.62 131.713ZM162.237 128.356H158.566V146.714H169.6V143.092H162.237V128.356ZM179.272 128.069C174.261 128.069 171.299 131.949 171.299 137.535C171.299 143.12 174.261 146.998 179.272 146.998C184.28 146.998 187.244 143.12 187.244 137.535C187.244 131.949 184.28 128.069 179.272 128.069ZM179.272 143.357C176.306 143.357 175.076 140.812 175.076 137.537C175.076 134.259 176.306 131.715 179.272 131.715C182.232 131.715 183.464 134.259 183.464 137.537C183.464 140.812 182.232 143.357 179.272 143.357ZM202.059 138.664C202.059 141.599 200.62 143.41 198.286 143.41C195.948 143.41 194.535 141.548 194.535 138.612V128.356H190.864V138.664C190.864 144.011 193.854 147 198.286 147C202.954 147 205.733 143.931 205.733 138.612V128.356H202.059V138.664ZM216.064 128.356H210.323V146.714H215.801C220.524 146.714 225.19 143.985 225.19 137.535C225.19 130.82 221.309 128.356 216.064 128.356ZM215.801 143.148H213.992V131.924H215.934C219.812 131.924 221.412 133.784 221.412 137.535C221.413 140.892 219.655 143.148 215.801 143.148Z" fill="black"/>
</svg>
