<svg width="270" height="180" viewBox="0 0 270 180" fill="none" xmlns="http://www.w3.org/2000/svg">
<rect width="270" height="180" rx="8" fill="#E6E6E6"/>
<path d="M109.371 56.4989C108.118 56.4989 106.87 56.4947 105.618 56.4947C102.651 56.4884 99.9138 58.752 97.8233 60.5462C95.8189 62.3592 93.9952 64.3567 92.3711 66.5155C91.7618 64.8912 91.0264 63.315 90.1713 61.7996C89.6307 60.6874 88.8598 59.7023 87.9095 58.9093C86.9591 58.1162 85.851 57.5333 84.6582 57.1989C83.4232 57.0316 82.1745 56.9888 80.931 57.0711C79.8847 57.0669 76.9117 57.0711 76.9117 57.0711C76.9117 57.0711 73.9345 57.0669 72.8903 57.0711C71.6468 56.9888 70.398 57.0316 69.1631 57.1989C67.9703 57.5333 66.8622 58.1162 65.9118 58.9093C64.9615 59.7023 64.1906 60.6874 63.65 61.7996C62.8007 63.3119 62.0708 64.888 61.467 66.5134C59.8429 64.3546 58.0171 62.3571 56.0148 60.5441C53.9201 58.7499 51.1866 56.4863 48.2158 56.4926L44.4633 56.4968C42.676 56.4995 40.8902 56.5023 39.1057 56.5051C37.803 56.5114 34.9246 56.1698 35.6054 58.2825C35.7735 58.794 36.3533 59.253 36.6832 59.6785L37.761 61.1813L39.2738 63.7132L42.5934 70.0221C45.0816 74.6326 47.9607 79.0222 51.1992 83.143C53.6427 86.1528 56.5926 89.192 60.2442 90.6843C57.4876 95.7943 54.7381 100.908 51.9955 106.027L44.3688 119.839C43.9446 120.505 43.6727 121.256 43.5725 122.038C43.5746 123.451 45.6777 123.493 46.682 123.499L49.9386 123.465C51.8253 123.444 53.7121 123.424 55.5988 123.403L58.9605 123.327C60.3591 123.205 61.7153 122.785 62.9377 122.096C64.1601 121.406 65.2204 120.464 66.0472 119.332C66.5893 118.578 71.6612 110.278 73.716 106.924L76.9243 101.86L80.1305 106.924L87.7993 119.332C88.6261 120.464 89.6864 121.406 90.9088 122.096C92.1312 122.785 93.4874 123.205 94.886 123.327C95.9996 123.432 97.1341 123.39 98.2477 123.403C100.133 123.421 102.02 123.442 103.908 123.465L107.164 123.499C108.169 123.493 110.274 123.451 110.274 122.038C110.175 121.254 109.902 120.504 109.476 119.837L109.118 119.204L101.855 106.027C99.1042 100.913 96.3519 95.7985 93.5981 90.6843C97.2539 89.1899 100.202 86.1528 102.645 83.143C105.885 79.0223 108.765 74.6333 111.253 70.0221L114.577 63.7132L116.09 61.1813C116.426 60.6636 116.783 60.1605 117.165 59.6785C117.596 59.2718 117.96 58.7981 118.245 58.2825C118.926 56.1698 116.048 56.5114 114.747 56.5051C112.957 56.5023 111.169 56.4995 109.383 56.4968L109.371 56.4989Z" fill="black"/>
<path d="M83.1077 68.2637L83.6792 68.1673C83.9429 68.1119 84.202 68.0369 84.4545 67.9431C84.9705 67.7637 85.4496 67.4924 85.8685 67.1424C86.0568 67.0085 86.2161 66.8381 86.337 66.6415C84.6814 66.6729 83.4481 66.6624 82.6329 66.5995C82.4102 66.566 82.2484 67.1382 82.1433 68.2763C82.1328 68.3644 82.6686 68.3078 83.1098 68.247L83.1077 68.2637ZM74.7666 75.9455C74.7456 75.9665 74.7351 76 74.7351 76.0294C74.7351 76.0587 74.7561 76.1006 74.7813 76.1237C74.8591 76.197 74.9452 76.262 75.0335 76.3207C75.5587 76.6686 76.1743 76.8489 76.8025 76.8405C77.4329 76.8519 78.0518 76.6705 78.5758 76.3207C78.6688 76.2616 78.7573 76.1958 78.8405 76.1237C78.9036 76.0713 78.933 75.9895 78.8867 75.9141C78.8279 75.8554 78.7355 75.8554 78.6766 75.9099L78.4392 76.088H78.4371C77.9504 76.3987 77.3846 76.5638 76.8067 76.5638C76.2289 76.5638 75.6631 76.3987 75.1763 76.088H75.1721C75.0947 76.0328 75.0203 75.9733 74.9494 75.9099C74.9242 75.8889 74.8906 75.8763 74.8549 75.8784C74.8191 75.8805 74.7876 75.8994 74.7666 75.9204V75.9455ZM82.0236 74.864C82.0171 74.8504 82.0114 74.8364 82.0068 74.8221C82.011 74.8367 82.0173 74.8514 82.0278 74.864H82.0236ZM85.9252 70.2444C85.7808 69.9244 85.5644 69.6418 85.2928 69.4186C84.5364 68.8527 83.4859 68.8946 82.7779 69.5234C82.4793 69.8264 82.2393 70.1817 82.0698 70.5714C81.6451 71.4793 81.4366 72.4728 81.4605 73.4744C81.4804 73.9319 81.6577 74.3686 81.9627 74.711C82.364 75.0763 82.869 75.3084 83.4082 75.3754C83.9397 75.5347 84.5091 75.5116 85.0218 75.3062C85.533 74.9331 85.8752 74.3732 85.9735 73.7489C86.2108 73.0173 86.3147 72.2492 86.2803 71.4811C86.2372 71.044 86.1163 70.6181 85.9231 70.2235L85.9252 70.2444Z" fill="white"/>
<path d="M84.0887 72.0886C84.3505 71.9896 84.6205 71.9139 84.8955 71.8623C84.3073 71.9042 84.0005 71.6673 83.9459 71.1538L83.8366 70.1058C83.8576 70.5711 83.7673 71.0344 83.5761 71.4577C83.508 71.5752 83.4102 71.6728 83.2925 71.7407L82.9416 71.8518C82.8122 71.8982 82.6773 71.9278 82.5403 71.9398C83.1832 71.8832 83.5278 72.0446 83.5845 72.4009L83.7946 73.4175C83.8051 72.621 83.9144 72.1913 84.1098 72.1096L84.0887 72.0886ZM84.8934 73.6774L84.8304 73.0171C84.8409 73.3043 84.7884 73.5894 84.677 73.8555C84.6287 73.9289 84.5657 73.9897 84.4669 74.0337L84.261 74.0966C84.177 74.1238 84.093 74.1427 84.0089 74.1511C84.3997 74.1175 84.6392 74.214 84.6392 74.434L84.7506 75.0544C84.7506 74.564 84.8136 74.3062 84.946 74.258C85.1042 74.1928 85.269 74.145 85.4376 74.1154C85.0762 74.1364 84.8829 73.9855 84.8493 73.6962" fill="white"/>
<path d="M71.4302 68.2929C71.3167 67.1359 71.1571 66.5637 70.9385 66.6161C70.0981 66.679 68.89 66.6895 67.2302 66.658C67.3514 66.8538 67.5099 67.024 67.6967 67.159C68.1161 67.5082 68.595 67.7794 69.1106 67.9596C69.3627 68.0525 69.6211 68.1275 69.8838 68.1839C69.9385 68.1965 70.178 68.2405 70.4553 68.2803C70.8755 68.3432 71.4323 68.3998 71.4281 68.3096L71.4302 68.2929ZM71.5605 74.8868L71.5773 74.8449C71.5731 74.8596 71.5689 74.8722 71.5626 74.8868H71.5605ZM67.308 71.506C67.2717 72.2743 67.3757 73.0427 67.6147 73.7739C67.6621 74.0831 67.7704 74.38 67.9334 74.6473C68.0964 74.9146 68.3108 75.147 68.5644 75.3312C69.0791 75.5366 69.6485 75.5408 70.178 75.4003C70.7179 75.3333 71.2222 75.1027 71.6487 74.7359C71.9537 74.3936 72.131 73.9568 72.1508 73.4993C72.1761 72.4974 71.966 71.5039 71.5205 70.5964C71.3575 70.1969 71.1169 69.8337 70.8125 69.5274C70.1065 68.8986 69.056 68.8567 68.2997 69.4226C68.0265 69.6448 67.8122 69.9256 67.6693 70.2484C67.4742 70.6424 67.3524 71.0686 67.3101 71.506H67.308Z" fill="white"/>
<path d="M69.497 72.0889C69.2353 71.9898 68.9653 71.914 68.6902 71.8625C69.2785 71.9044 69.5852 71.6676 69.6398 71.1541L69.7491 70.1061C69.7278 70.5714 69.8185 71.0349 70.0138 71.458C70.0811 71.5754 70.1777 71.6718 70.2933 71.741L70.6441 71.852C70.7744 71.8981 70.9089 71.9275 71.0475 71.9401C70.4046 71.8835 70.0558 72.0449 70.0033 72.4012L69.7932 73.4177C69.7827 72.6213 69.6735 72.1916 69.4781 72.1098L69.497 72.0889ZM68.6902 73.6776L68.7574 73.0174C68.7482 73.3039 68.8005 73.589 68.9108 73.8537C68.957 73.925 69.02 73.9857 69.0957 74.0319L69.3058 74.0947C69.3898 74.122 69.4739 74.1409 69.5579 74.1492C69.165 74.1157 68.9276 74.2121 68.9276 74.4322L68.8183 75.0526C68.8183 74.5621 68.7511 74.3043 68.6229 74.2561C68.4649 74.1906 68.3 74.1428 68.1313 74.1136C68.4927 74.1346 68.6881 73.9837 68.7196 73.6944L68.6902 73.6776ZM44.6165 119.965L44.106 121.007C43.9568 121.33 43.8698 121.677 43.8497 122.032V122.036C43.8434 122.273 43.94 122.497 44.1123 122.661C44.3196 122.836 44.5638 122.962 44.8266 123.03C45.4345 123.171 46.0578 123.235 46.6818 123.22L47.018 123.222L55.6007 123.122L56.189 123.12L56.8824 123.122L58.9372 123.046C61.6685 122.807 64.2003 121.37 65.8286 119.165C66.2146 118.582 66.59 117.993 66.9547 117.398L69.0852 113.956L73.4847 106.777L76.693 101.709C76.7191 101.671 76.754 101.639 76.7949 101.616C76.8358 101.593 76.8816 101.581 76.9283 101.579C77.0229 101.575 77.109 101.63 77.1384 101.709L80.353 106.777L86.8809 117.396L88.0092 119.163C88.8118 120.264 89.842 121.18 91.0301 121.85C92.2183 122.52 93.5367 122.928 94.8964 123.046C95.5797 123.104 96.2654 123.13 96.9512 123.122L97.6487 123.12L98.237 123.122C100.121 123.143 102.008 123.164 103.897 123.185L106.839 123.22L107.175 123.218C107.637 123.224 108.099 123.194 108.557 123.128C108.99 123.086 109.404 122.925 109.746 122.657C109.832 122.577 109.9 122.48 109.946 122.373C109.991 122.265 110.013 122.149 110.009 122.032V122.024C109.988 121.667 109.904 121.321 109.757 120.976C109.606 120.613 109.41 120.25 109.244 119.942L108.891 119.336L101.622 106.132C98.8694 101.018 96.1185 95.9034 93.3689 90.7892C93.3332 90.7201 93.3269 90.6383 93.3542 90.565C93.3815 90.4916 93.4383 90.4308 93.5097 90.4015C97.0877 88.9427 100.014 85.937 102.445 82.944C105.677 78.8358 108.547 74.4552 111.028 69.8588L113.543 65.0338C111.615 67.9311 109.225 70.4941 106.467 72.6213C102.412 75.8805 95.5414 79.1188 85.8661 82.2628C76.5515 85.2992 69.6994 88.8344 65.3096 92.8684L60.9101 96.7732C59.9793 97.7434 59.0646 98.7286 58.1661 99.7286C55.9453 102.252 53.8653 104.895 51.9365 107.647L49.8061 110.665L44.9737 119.336L44.6207 119.957" fill="white"/>
<path d="M117.783 58.1336C117.695 58.3411 117.567 58.5296 117.407 58.6891L116.785 59.3807L116.781 59.3849C116.386 59.8796 116.018 60.3952 115.676 60.9276H115.678L114.157 63.4784L110.831 69.7915C108.356 74.3775 105.494 78.7455 102.269 82.8431C99.8466 85.832 96.9409 88.8041 93.4196 90.2419C93.2935 90.2943 93.1885 90.3991 93.1423 90.5312C93.096 90.6632 93.1065 90.8079 93.1717 90.9504C95.9282 96.0604 98.6806 101.175 101.429 106.293L108.698 119.477L109.051 120.099L109.556 121.116C109.692 121.412 109.773 121.731 109.793 122.057V122.067C109.801 122.243 109.73 122.415 109.6 122.535C109.284 122.772 108.913 122.916 108.52 122.954C108.072 123.017 107.623 123.044 107.171 123.042H106.803C105.849 123.042 104.887 123.017 103.921 123.008C102.032 122.986 100.146 122.965 98.2604 122.946L97.7477 122.941L96.9493 122.943C96.2665 122.943 95.5921 122.935 94.9386 122.872C93.6101 122.756 92.3218 122.357 91.1604 121.703C89.999 121.049 88.9912 120.155 88.2048 119.081L87.8203 118.494L80.5592 106.706L77.3446 101.634C77.2542 101.493 77.0967 101.407 76.9286 101.407C76.7605 101.407 76.605 101.491 76.5126 101.634C76.5105 101.638 74.0838 105.427 73.298 106.706L68.9047 113.845L66.7764 117.282L66.041 118.452L65.6565 119.039C64.0661 121.214 61.61 122.595 58.9227 122.832C58.2714 122.895 57.5991 122.904 56.912 122.904C56.6473 122.904 56.3805 122.902 56.1137 122.902L55.601 122.906C53.7143 122.922 51.8275 122.943 49.9408 122.969L47.0582 123.002H46.6905C46.0854 123.017 45.4824 122.954 44.8941 122.818C44.663 122.763 44.4466 122.654 44.2638 122.499C44.1336 122.38 44.0621 122.206 44.0747 122.03V122.021C44.0957 121.696 44.1756 121.376 44.3121 121.078C44.4592 120.728 44.6483 120.372 44.8122 120.061L45.1631 119.441L52.4326 106.257C55.1822 101.143 57.9317 96.0289 60.6813 90.9148C60.7485 90.7932 60.759 90.6465 60.7128 90.4956C60.6666 90.3446 60.5657 90.2587 60.4355 90.2063C56.9141 88.7706 54.0063 85.7985 51.5859 82.8075C48.365 78.7078 45.5013 74.3397 43.0284 69.7558L39.7025 63.4427L38.1813 60.894C37.8389 60.3617 37.4712 59.846 37.0762 59.3514C36.8766 59.0957 36.6455 58.8693 36.4522 58.6597C36.2925 58.5014 36.1654 58.3134 36.0782 58.1064C36.0299 57.968 36.0026 57.8234 35.9984 57.6767C35.99 57.5593 36.0278 57.4461 36.1034 57.3518C36.2924 57.1805 36.5305 57.0727 36.7841 57.0437C37.1781 56.975 37.5777 56.9441 37.9775 56.9515L39.1121 56.9683C40.8994 56.9655 42.6852 56.9627 44.4697 56.9599C45.7191 56.9599 46.9693 56.9592 48.2201 56.9578H48.2348C49.6488 57.0207 51.0186 57.4608 52.1994 58.2405C53.4367 59.025 54.6061 59.9112 55.6955 60.8898C57.6756 62.6816 59.4795 64.658 61.0826 66.7921C61.1939 66.9325 61.3704 67.0017 61.5448 66.9724C61.7192 66.943 61.8684 66.8257 61.9293 66.658C62.5303 65.0567 63.2552 63.5045 64.0976 62.0154L64.106 61.9986C65.1103 60.0137 67.142 58.0896 69.2808 57.6557C69.8682 57.5466 70.4652 57.4975 71.0625 57.509L72.9114 57.5384H74.4178H80.9521L82.801 57.509C83.3976 57.4973 83.9939 57.5465 84.5805 57.6557C86.7194 58.0896 88.7532 60.0116 89.7575 61.9986L89.7659 62.0154C90.6076 63.5048 91.3325 65.057 91.9342 66.658C91.9972 66.8257 92.1443 66.9472 92.3186 66.9724C92.493 66.9975 92.6758 66.9305 92.7809 66.7921C94.3835 64.6582 96.1867 62.6818 98.1658 60.8898C99.2571 59.9116 100.428 59.0255 101.666 58.2405C102.847 57.465 104.217 57.0207 105.631 56.9578H105.643C106.893 56.9578 108.144 56.9585 109.396 56.9599C111.18 56.9627 112.968 56.9655 114.758 56.9683H114.796L115.888 56.9515C116.392 56.9305 116.901 56.9892 117.39 57.1276C117.531 57.1697 117.658 57.2469 117.76 57.3518C117.835 57.443 117.872 57.5593 117.863 57.6767C117.858 57.8231 117.831 57.968 117.783 58.1064V58.1336ZM118.506 56.7419C118.178 56.4002 117.743 56.176 117.275 56.1131C116.817 56.0293 116.35 55.9936 115.888 56.002L114.753 56.0188C112.965 56.016 111.177 56.0132 109.39 56.0104C108.137 56.0104 106.868 56.0062 105.637 56.0062H105.639H105.624C104.031 56.0675 102.485 56.5602 101.151 57.4315C99.8656 58.2447 98.6302 59.1627 97.5166 60.1562C95.6927 61.7911 94.0244 63.5909 92.533 65.5324C91.9762 64.1659 91.3354 62.8349 90.6147 61.5501C89.4528 59.1732 87.3245 57.4084 84.7696 56.7084C84.1393 56.5826 83.4544 56.5281 82.7905 56.5407L80.9416 56.57H79.4351H76.9223H74.4094H72.8967C72.3189 56.57 71.6928 56.5407 71.052 56.5407C70.386 56.5281 69.722 56.5826 69.0686 56.7084C66.5054 57.4126 64.377 59.1816 63.2172 61.5668C62.4987 62.8496 61.8621 64.1742 61.3053 65.5345C59.8146 63.5923 58.1462 61.7925 56.3217 60.1583C55.1871 59.1439 53.9748 58.2258 52.6911 57.4336C51.3573 56.5623 49.811 56.0696 48.218 56.0083H48.1907L44.4508 56.0125C42.6635 56.0153 40.8777 56.0181 39.0932 56.0209H39.0575C38.7696 56.0209 38.3788 56.0041 37.9649 56.0041C37.3442 55.9805 36.7237 56.0591 36.1286 56.2368C35.826 56.3352 35.5544 56.5108 35.3407 56.7461C35.1134 57.0154 34.9924 57.3582 35.0004 57.7102C35.0048 57.9584 35.0473 58.2043 35.1264 58.4396C35.2557 58.7779 35.4522 59.0867 35.7042 59.3472L36.2841 59.9865C36.6581 60.4539 37.009 60.9422 37.3346 61.4474L38.8369 63.9625L42.1565 70.2505C44.6581 74.8853 47.5526 79.2981 50.8085 83.4405C53.1617 86.3371 56.0107 89.2841 59.5593 90.8938C56.884 95.8543 54.2227 100.818 51.5754 105.784L43.9487 119.617L43.4066 120.717C43.2175 121.133 43.1125 121.577 43.0957 122.034V122.055C43.0938 122.273 43.1368 122.489 43.2221 122.69C43.3074 122.891 43.4331 123.072 43.5915 123.222C44.0474 123.599 44.6042 123.836 45.1925 123.899C45.6883 123.968 46.1905 124.004 46.6926 123.996H47.0666L55.6178 123.897L56.1221 123.895H56.9204L59.0257 123.817C61.9965 123.555 64.709 122.025 66.4633 119.621L66.8835 118.986L74.1531 107.186L76.044 104.184L76.9412 102.78L77.8362 104.184L79.7272 107.186L84.1267 114.367L86.2593 117.812L86.9946 118.986L87.4106 119.621C88.2787 120.81 89.3914 121.799 90.6742 122.523C91.957 123.247 93.3802 123.689 94.8483 123.82C95.5484 123.879 96.2509 123.905 96.9535 123.897H97.7519L98.2562 123.899L106.812 123.998H107.186C107.879 124.014 108.572 123.939 109.251 123.776C109.635 123.679 109.993 123.488 110.289 123.224C110.614 122.918 110.793 122.491 110.787 122.044V122.034C110.77 121.578 110.664 121.131 110.476 120.715C110.303 120.302 110.098 119.919 109.93 119.613L109.564 118.967L102.307 105.805C99.6386 100.844 96.9689 95.8808 94.2978 90.9148C97.8486 89.305 100.691 86.3581 103.047 83.4615C106.304 79.319 109.2 74.9063 111.703 70.2714L115.022 63.9835L116.525 61.4683C116.849 60.9644 117.198 60.4769 117.571 60.0074V60.0116C117.705 59.8377 117.928 59.6176 118.153 59.3703C118.405 59.1107 118.602 58.8026 118.731 58.4648C118.811 58.23 118.853 57.9827 118.857 57.7312C118.865 57.3791 118.743 57.0353 118.516 56.767L118.506 56.7419Z" fill="black"/>
<path d="M188.307 69.6198C186.143 70.7516 185.338 72.6589 185.338 77.9324C186.132 77.2198 187.054 76.6602 188.059 76.2892C189.05 75.9156 189.985 75.4086 190.838 74.7822C192.666 73.447 192.948 71.7262 192.948 68.8296C192.948 68.8296 189.969 68.7457 188.305 69.6177" fill="black"/>
<path d="M175.48 70.8521C174.352 71.9491 173.561 73.3445 173.2 74.8743L167.359 97.4417L162.502 78.9719C162.029 77.008 161.178 74.5809 159.829 72.9397C158.111 70.8479 154.619 70.718 154.245 70.718C153.871 70.718 150.379 70.8479 148.66 72.9397C147.311 74.5809 146.458 77.0059 145.985 78.9719L141.153 97.4417L135.312 74.8743C134.954 73.3436 134.163 71.9472 133.035 70.85C130.177 68.3348 125.887 68.8735 125.887 68.8735L137.069 111.049C137.069 111.049 140.758 111.313 142.603 110.374C145.027 109.141 146.181 108.19 147.649 102.451L152.955 81.2398C153.123 80.7116 153.337 79.4477 154.268 79.4477C155.219 79.4477 155.415 80.7095 155.581 81.2398C155.917 82.2878 159.579 97.3369 160.886 102.451C162.352 108.188 163.508 109.141 165.928 110.374C167.773 111.313 171.463 111.049 171.463 111.049L182.64 68.8735C182.64 68.8735 178.354 68.3348 175.492 70.85L175.48 70.8521ZM192.962 75.7399C192.347 76.5529 191.564 77.2247 190.666 77.7102C189.641 78.2803 188.657 78.668 187.603 79.1732C185.834 80.0199 185.355 80.9631 185.355 82.401V111.032C185.355 111.032 188.176 111.388 190.019 110.449C192.393 109.242 192.96 108.077 192.96 102.833L192.962 75.7399ZM220.814 90.0639L235 69.0139C235 69.0139 229.012 67.9974 226.05 70.6907C224.563 72.1701 223.218 73.7839 222.03 75.5115L216.811 83.0193C216.736 83.2553 216.588 83.4615 216.388 83.6084C216.188 83.7552 215.946 83.8351 215.698 83.8367C215.187 83.8367 214.738 83.5076 214.584 82.9983L209.38 75.5303C208.193 73.8033 206.848 72.1894 205.361 70.7096C202.419 68.0184 196.41 69.0328 196.41 69.0328L210.596 90.0827L196.446 111.068C196.446 111.068 202.682 111.852 205.644 109.181C207.044 107.808 208.295 106.292 209.378 104.658L214.599 97.1504C214.674 96.9143 214.823 96.7081 215.023 96.5613C215.223 96.4145 215.464 96.3345 215.712 96.333C216.223 96.333 216.673 96.662 216.826 97.1713L222.045 104.679C223.18 106.304 224.467 107.817 225.89 109.202C228.831 111.894 234.981 111.089 234.981 111.089L220.833 90.1037" fill="black"/>
</svg>
